<svg width="100" height="100" viewBox="0 0 100 100" fill="none" xmlns="http://www.w3.org/2000/svg">
<path fill-rule="evenodd" clip-rule="evenodd" d="M61.8681 49.2403C61.8053 49.643 61.6521 50.0264 61.4201 50.3616C61.188 50.6968 60.8832 50.975 60.5284 51.1756C59.8137 51.6371 59.1884 51.8679 58.5558 52.0986C57.2085 52.5639 55.7905 53.0291 54.2906 53.5688C52.7089 54.1083 51.2908 54.648 50.0255 55.0389C48.4474 55.5785 46.9475 56.0437 45.5221 56.5833C44.4497 57.0424 43.4423 57.6404 42.5261 58.3625C41.6739 59.1345 40.9302 60.0184 40.3153 60.99C39.6827 62.0692 39.2845 63.4612 39.2845 65.0839C39.2845 68.3331 40.0734 70.8043 41.6552 72.3489C43.2333 73.9753 46.1586 74.7457 50.4944 74.7457C54.9159 74.7457 57.9157 73.8971 59.5011 72.1963C61.0754 70.4954 61.8644 68.1023 61.8644 65.0132V49.2403H61.8681ZM50.4981 15C58.2394 15 63.9226 16.4701 67.5513 19.4847C71.1838 22.4249 73 26.2063 73 30.6872V68.8727C73 70.4172 72.6873 72.1181 72.1365 73.9715C71.5783 75.8324 70.4767 77.5296 68.7385 79.0703C67.0823 80.6223 64.7935 81.9361 61.8719 82.9409C58.9503 83.9459 55.1615 84.4855 50.5019 84.4855C45.8497 84.4855 42.0534 83.9459 39.1355 82.9409C36.2177 81.9361 33.9251 80.6223 32.2689 79.0703C30.7282 77.6819 29.561 75.9287 28.8746 73.9715C28.3163 72.1217 28 70.4209 28 68.8765V62.7728C28 59.5236 28.8671 56.5089 30.6053 53.8776C32.3433 51.1756 34.7884 49.3222 37.9483 48.161C39.5263 47.6213 41.3425 47.0818 43.3932 46.3858C45.4477 45.686 47.3384 44.9901 49.2364 44.376C51.1345 43.7544 52.7907 43.133 54.2088 42.5895C55.0645 42.2472 55.9336 41.9393 56.8139 41.6665L58.2358 40.9705C58.794 40.6616 59.341 40.1965 59.8956 39.5786C60.4464 38.9646 60.9191 38.2685 61.3173 37.4944C61.7381 36.6562 61.9548 35.7303 61.9501 34.7924V32.3174C61.9558 31.4103 61.7655 30.5126 61.3917 29.6861C61.0792 28.7557 60.4464 27.9071 59.5793 27.1367C58.712 26.3626 57.5248 25.7448 56.1069 25.2758C54.6851 24.818 52.7945 24.5836 50.6582 24.5836C46.2366 24.5836 43.315 25.4396 41.737 27.2111C40.3972 28.7594 39.6083 30.691 39.4519 32.8533C39.4519 33.3186 39.0573 33.6275 38.5811 33.6275L28.9528 33.7838C28.7241 33.7848 28.5042 33.6954 28.3411 33.5351C28.1781 33.3747 28.0848 33.1564 28.0819 32.9278V30.6948C28.0819 28.5249 28.4802 26.5152 29.3473 24.5836C30.2182 22.6482 31.5617 21.0293 33.3743 19.6336C35.1905 18.2454 37.5612 17.0879 40.401 16.3138C43.1662 15.3833 46.5605 15 50.5055 15H50.4981Z" fill="#0A3871"/>
</svg>
